<svg width="160" height="40" viewBox="0 0 160 40" fill="none" xmlns="http://www.w3.org/2000/svg">
<path d="M8.98438 6.67383H17.2461L23.5039 17.0449L28.4258 8.60742V20.3496L22.8184 30L8.98438 6.67383ZM29.5684 30V6.67383H37.3379V30H29.5684ZM8.9668 30V8.83594L16.2266 21.0176V30H8.9668ZM41.0996 25.0254H43.4375V11.6309H41.0996V6.67383H53.5449V11.6309H51.207V25.0254H53.5449V30H41.0996V25.0254ZM65.041 25.3418H71.7031V30H61.9297L57.2715 25.3418V11.332L61.9297 6.67383H65.041V25.3418ZM69.1543 17.0625H79.8242V30H72.9336V21.6855H69.1543V17.0625ZM66.2715 11.332V6.67383H75.7461L79.8242 11.332V13.6699H72.0547V11.332H66.2715ZM98.3164 6.67383H106.156V30H98.3691V20.5254H92.6035V15.8496H98.3164V6.67383ZM91.373 30H83.6035V6.67383H91.373V30ZM115.191 12.9668H123.277V30H115.191V12.9668ZM109.109 6.67383H129.359V11.7539H109.109V6.67383ZM137.727 22.582L129.816 6.67383H137.445L145.514 23.127V30H137.727V22.582ZM146.006 21.4922L142.227 13.8281L146.059 6.67383H153.529L146.006 21.4922Z" fill="white"/>
</svg>
